<mxfile host="app.diagrams.net" agent="Mozilla/5.0 (X11; Linux x86_64) AppleWebKit/537.36 (KHTML, like Gecko) Chrome/134.0.0.0 Safari/537.36" version="26.2.5">
  <diagram name="Página-1" id="J8z2Hz0ix1Q79uqQlnOR">
    <mxGraphModel dx="1935" dy="613" grid="1" gridSize="10" guides="1" tooltips="1" connect="1" arrows="1" fold="1" page="1" pageScale="1" pageWidth="827" pageHeight="1169" math="0" shadow="0">
      <root>
        <mxCell id="0" />
        <mxCell id="1" parent="0" />
        <mxCell id="gSbt8YX9vIqVf56h3UsO-9" value="EventoEsportivo" style="swimlane;fontStyle=0;childLayout=stackLayout;horizontal=1;startSize=26;fillColor=none;horizontalStack=0;resizeParent=1;resizeParentMax=0;resizeLast=0;collapsible=1;marginBottom=0;whiteSpace=wrap;html=1;" parent="1" vertex="1">
          <mxGeometry x="-420" y="200" width="140" height="164" as="geometry" />
        </mxCell>
        <mxCell id="gSbt8YX9vIqVf56h3UsO-10" value="Nome" style="text;strokeColor=none;fillColor=none;align=left;verticalAlign=top;spacingLeft=4;spacingRight=4;overflow=hidden;rotatable=0;points=[[0,0.5],[1,0.5]];portConstraint=eastwest;whiteSpace=wrap;html=1;" parent="gSbt8YX9vIqVf56h3UsO-9" vertex="1">
          <mxGeometry y="26" width="140" height="26" as="geometry" />
        </mxCell>
        <mxCell id="gSbt8YX9vIqVf56h3UsO-11" value="Data" style="text;strokeColor=none;fillColor=none;align=left;verticalAlign=top;spacingLeft=4;spacingRight=4;overflow=hidden;rotatable=0;points=[[0,0.5],[1,0.5]];portConstraint=eastwest;whiteSpace=wrap;html=1;" parent="gSbt8YX9vIqVf56h3UsO-9" vertex="1">
          <mxGeometry y="52" width="140" height="26" as="geometry" />
        </mxCell>
        <mxCell id="gSbt8YX9vIqVf56h3UsO-12" value="Local&lt;div&gt;&lt;br&gt;&lt;/div&gt;" style="text;strokeColor=none;fillColor=none;align=left;verticalAlign=top;spacingLeft=4;spacingRight=4;overflow=hidden;rotatable=0;points=[[0,0.5],[1,0.5]];portConstraint=eastwest;whiteSpace=wrap;html=1;" parent="gSbt8YX9vIqVf56h3UsO-9" vertex="1">
          <mxGeometry y="78" width="140" height="26" as="geometry" />
        </mxCell>
        <mxCell id="gSbt8YX9vIqVf56h3UsO-17" value="TipoEsporte" style="text;strokeColor=none;fillColor=none;align=left;verticalAlign=top;spacingLeft=4;spacingRight=4;overflow=hidden;rotatable=0;points=[[0,0.5],[1,0.5]];portConstraint=eastwest;whiteSpace=wrap;html=1;" parent="gSbt8YX9vIqVf56h3UsO-9" vertex="1">
          <mxGeometry y="104" width="140" height="26" as="geometry" />
        </mxCell>
        <mxCell id="gSbt8YX9vIqVf56h3UsO-70" value="" style="line;strokeWidth=1;fillColor=none;align=left;verticalAlign=middle;spacingTop=-1;spacingLeft=3;spacingRight=3;rotatable=0;labelPosition=right;points=[];portConstraint=eastwest;strokeColor=inherit;" parent="gSbt8YX9vIqVf56h3UsO-9" vertex="1">
          <mxGeometry y="130" width="140" height="8" as="geometry" />
        </mxCell>
        <mxCell id="gSbt8YX9vIqVf56h3UsO-69" value="+ Edicoes: Edicao" style="text;strokeColor=none;fillColor=none;align=left;verticalAlign=top;spacingLeft=4;spacingRight=4;overflow=hidden;rotatable=0;points=[[0,0.5],[1,0.5]];portConstraint=eastwest;whiteSpace=wrap;html=1;" parent="gSbt8YX9vIqVf56h3UsO-9" vertex="1">
          <mxGeometry y="138" width="140" height="26" as="geometry" />
        </mxCell>
        <mxCell id="gSbt8YX9vIqVf56h3UsO-90" style="edgeStyle=orthogonalEdgeStyle;rounded=0;orthogonalLoop=1;jettySize=auto;html=1;exitX=0.5;exitY=0;exitDx=0;exitDy=0;endArrow=none;startFill=0;entryX=0.5;entryY=0.962;entryDx=0;entryDy=0;entryPerimeter=0;" parent="1" source="gSbt8YX9vIqVf56h3UsO-13" target="gSbt8YX9vIqVf56h3UsO-69" edge="1">
          <mxGeometry relative="1" as="geometry">
            <mxPoint x="-350" y="370" as="targetPoint" />
          </mxGeometry>
        </mxCell>
        <mxCell id="gSbt8YX9vIqVf56h3UsO-13" value="Edição" style="swimlane;fontStyle=0;childLayout=stackLayout;horizontal=1;startSize=26;fillColor=none;horizontalStack=0;resizeParent=1;resizeParentMax=0;resizeLast=0;collapsible=1;marginBottom=0;whiteSpace=wrap;html=1;" parent="1" vertex="1">
          <mxGeometry x="-420" y="454" width="140" height="156" as="geometry" />
        </mxCell>
        <mxCell id="gSbt8YX9vIqVf56h3UsO-15" value="Vencedor" style="text;strokeColor=none;fillColor=none;align=left;verticalAlign=top;spacingLeft=4;spacingRight=4;overflow=hidden;rotatable=0;points=[[0,0.5],[1,0.5]];portConstraint=eastwest;whiteSpace=wrap;html=1;" parent="gSbt8YX9vIqVf56h3UsO-13" vertex="1">
          <mxGeometry y="26" width="140" height="26" as="geometry" />
        </mxCell>
        <mxCell id="gSbt8YX9vIqVf56h3UsO-16" value="NumEspectadores" style="text;strokeColor=none;fillColor=none;align=left;verticalAlign=top;spacingLeft=4;spacingRight=4;overflow=hidden;rotatable=0;points=[[0,0.5],[1,0.5]];portConstraint=eastwest;whiteSpace=wrap;html=1;" parent="gSbt8YX9vIqVf56h3UsO-13" vertex="1">
          <mxGeometry y="52" width="140" height="26" as="geometry" />
        </mxCell>
        <mxCell id="gSbt8YX9vIqVf56h3UsO-21" value="Receita" style="text;strokeColor=none;fillColor=none;align=left;verticalAlign=top;spacingLeft=4;spacingRight=4;overflow=hidden;rotatable=0;points=[[0,0.5],[1,0.5]];portConstraint=eastwest;whiteSpace=wrap;html=1;" parent="gSbt8YX9vIqVf56h3UsO-13" vertex="1">
          <mxGeometry y="78" width="140" height="26" as="geometry" />
        </mxCell>
        <mxCell id="gSbt8YX9vIqVf56h3UsO-22" value="Formato" style="text;strokeColor=none;fillColor=none;align=left;verticalAlign=top;spacingLeft=4;spacingRight=4;overflow=hidden;rotatable=0;points=[[0,0.5],[1,0.5]];portConstraint=eastwest;whiteSpace=wrap;html=1;" parent="gSbt8YX9vIqVf56h3UsO-13" vertex="1">
          <mxGeometry y="104" width="140" height="26" as="geometry" />
        </mxCell>
        <mxCell id="gSbt8YX9vIqVf56h3UsO-23" value="Regras" style="text;strokeColor=none;fillColor=none;align=left;verticalAlign=top;spacingLeft=4;spacingRight=4;overflow=hidden;rotatable=0;points=[[0,0.5],[1,0.5]];portConstraint=eastwest;whiteSpace=wrap;html=1;" parent="gSbt8YX9vIqVf56h3UsO-13" vertex="1">
          <mxGeometry y="130" width="140" height="26" as="geometry" />
        </mxCell>
        <mxCell id="gSbt8YX9vIqVf56h3UsO-24" value="Equipe" style="swimlane;fontStyle=0;childLayout=stackLayout;horizontal=1;startSize=26;fillColor=none;horizontalStack=0;resizeParent=1;resizeParentMax=0;resizeLast=0;collapsible=1;marginBottom=0;whiteSpace=wrap;html=1;" parent="1" vertex="1">
          <mxGeometry x="-190" y="200" width="140" height="164" as="geometry" />
        </mxCell>
        <mxCell id="gSbt8YX9vIqVf56h3UsO-25" value="Nome" style="text;strokeColor=none;fillColor=none;align=left;verticalAlign=top;spacingLeft=4;spacingRight=4;overflow=hidden;rotatable=0;points=[[0,0.5],[1,0.5]];portConstraint=eastwest;whiteSpace=wrap;html=1;" parent="gSbt8YX9vIqVf56h3UsO-24" vertex="1">
          <mxGeometry y="26" width="140" height="26" as="geometry" />
        </mxCell>
        <mxCell id="gSbt8YX9vIqVf56h3UsO-26" value="PaísOrigem" style="text;strokeColor=none;fillColor=none;align=left;verticalAlign=top;spacingLeft=4;spacingRight=4;overflow=hidden;rotatable=0;points=[[0,0.5],[1,0.5]];portConstraint=eastwest;whiteSpace=wrap;html=1;" parent="gSbt8YX9vIqVf56h3UsO-24" vertex="1">
          <mxGeometry y="52" width="140" height="26" as="geometry" />
        </mxCell>
        <mxCell id="gSbt8YX9vIqVf56h3UsO-27" value="Técnico" style="text;strokeColor=none;fillColor=none;align=left;verticalAlign=top;spacingLeft=4;spacingRight=4;overflow=hidden;rotatable=0;points=[[0,0.5],[1,0.5]];portConstraint=eastwest;whiteSpace=wrap;html=1;" parent="gSbt8YX9vIqVf56h3UsO-24" vertex="1">
          <mxGeometry y="78" width="140" height="26" as="geometry" />
        </mxCell>
        <mxCell id="gSbt8YX9vIqVf56h3UsO-29" value="Títulos" style="text;strokeColor=none;fillColor=none;align=left;verticalAlign=top;spacingLeft=4;spacingRight=4;overflow=hidden;rotatable=0;points=[[0,0.5],[1,0.5]];portConstraint=eastwest;whiteSpace=wrap;html=1;" parent="gSbt8YX9vIqVf56h3UsO-24" vertex="1">
          <mxGeometry y="104" width="140" height="26" as="geometry" />
        </mxCell>
        <mxCell id="gSbt8YX9vIqVf56h3UsO-68" value="" style="line;strokeWidth=1;fillColor=none;align=left;verticalAlign=middle;spacingTop=-1;spacingLeft=3;spacingRight=3;rotatable=0;labelPosition=right;points=[];portConstraint=eastwest;strokeColor=inherit;" parent="gSbt8YX9vIqVf56h3UsO-24" vertex="1">
          <mxGeometry y="130" width="140" height="8" as="geometry" />
        </mxCell>
        <mxCell id="gSbt8YX9vIqVf56h3UsO-28" value="+ Jogadores: Atleta" style="text;strokeColor=none;fillColor=none;align=left;verticalAlign=top;spacingLeft=4;spacingRight=4;overflow=hidden;rotatable=0;points=[[0,0.5],[1,0.5]];portConstraint=eastwest;whiteSpace=wrap;html=1;" parent="gSbt8YX9vIqVf56h3UsO-24" vertex="1">
          <mxGeometry y="138" width="140" height="26" as="geometry" />
        </mxCell>
        <mxCell id="gSbt8YX9vIqVf56h3UsO-31" value="Atletas" style="swimlane;fontStyle=0;childLayout=stackLayout;horizontal=1;startSize=26;fillColor=none;horizontalStack=0;resizeParent=1;resizeParentMax=0;resizeLast=0;collapsible=1;marginBottom=0;whiteSpace=wrap;html=1;" parent="1" vertex="1">
          <mxGeometry x="110" y="200" width="140" height="338" as="geometry" />
        </mxCell>
        <mxCell id="gSbt8YX9vIqVf56h3UsO-32" value="Nome" style="text;strokeColor=none;fillColor=none;align=left;verticalAlign=top;spacingLeft=4;spacingRight=4;overflow=hidden;rotatable=0;points=[[0,0.5],[1,0.5]];portConstraint=eastwest;whiteSpace=wrap;html=1;" parent="gSbt8YX9vIqVf56h3UsO-31" vertex="1">
          <mxGeometry y="26" width="140" height="26" as="geometry" />
        </mxCell>
        <mxCell id="gSbt8YX9vIqVf56h3UsO-33" value="DataNascimento" style="text;strokeColor=none;fillColor=none;align=left;verticalAlign=top;spacingLeft=4;spacingRight=4;overflow=hidden;rotatable=0;points=[[0,0.5],[1,0.5]];portConstraint=eastwest;whiteSpace=wrap;html=1;" parent="gSbt8YX9vIqVf56h3UsO-31" vertex="1">
          <mxGeometry y="52" width="140" height="26" as="geometry" />
        </mxCell>
        <mxCell id="gSbt8YX9vIqVf56h3UsO-34" value="LocalNascimento" style="text;strokeColor=none;fillColor=none;align=left;verticalAlign=top;spacingLeft=4;spacingRight=4;overflow=hidden;rotatable=0;points=[[0,0.5],[1,0.5]];portConstraint=eastwest;whiteSpace=wrap;html=1;" parent="gSbt8YX9vIqVf56h3UsO-31" vertex="1">
          <mxGeometry y="78" width="140" height="26" as="geometry" />
        </mxCell>
        <mxCell id="gSbt8YX9vIqVf56h3UsO-35" value="HistóricoTimes" style="text;strokeColor=none;fillColor=none;align=left;verticalAlign=top;spacingLeft=4;spacingRight=4;overflow=hidden;rotatable=0;points=[[0,0.5],[1,0.5]];portConstraint=eastwest;whiteSpace=wrap;html=1;" parent="gSbt8YX9vIqVf56h3UsO-31" vertex="1">
          <mxGeometry y="104" width="140" height="26" as="geometry" />
        </mxCell>
        <mxCell id="gSbt8YX9vIqVf56h3UsO-36" value="Medalhas" style="text;strokeColor=none;fillColor=none;align=left;verticalAlign=top;spacingLeft=4;spacingRight=4;overflow=hidden;rotatable=0;points=[[0,0.5],[1,0.5]];portConstraint=eastwest;whiteSpace=wrap;html=1;" parent="gSbt8YX9vIqVf56h3UsO-31" vertex="1">
          <mxGeometry y="130" width="140" height="26" as="geometry" />
        </mxCell>
        <mxCell id="gSbt8YX9vIqVf56h3UsO-37" value="Prêmios" style="text;strokeColor=none;fillColor=none;align=left;verticalAlign=top;spacingLeft=4;spacingRight=4;overflow=hidden;rotatable=0;points=[[0,0.5],[1,0.5]];portConstraint=eastwest;whiteSpace=wrap;html=1;" parent="gSbt8YX9vIqVf56h3UsO-31" vertex="1">
          <mxGeometry y="156" width="140" height="26" as="geometry" />
        </mxCell>
        <mxCell id="gSbt8YX9vIqVf56h3UsO-38" value="EstatísticaIndividual" style="text;strokeColor=none;fillColor=none;align=left;verticalAlign=top;spacingLeft=4;spacingRight=4;overflow=hidden;rotatable=0;points=[[0,0.5],[1,0.5]];portConstraint=eastwest;whiteSpace=wrap;html=1;" parent="gSbt8YX9vIqVf56h3UsO-31" vertex="1">
          <mxGeometry y="182" width="140" height="26" as="geometry" />
        </mxCell>
        <mxCell id="gSbt8YX9vIqVf56h3UsO-39" value="LesõesSofridas" style="text;strokeColor=none;fillColor=none;align=left;verticalAlign=top;spacingLeft=4;spacingRight=4;overflow=hidden;rotatable=0;points=[[0,0.5],[1,0.5]];portConstraint=eastwest;whiteSpace=wrap;html=1;" parent="gSbt8YX9vIqVf56h3UsO-31" vertex="1">
          <mxGeometry y="208" width="140" height="26" as="geometry" />
        </mxCell>
        <mxCell id="gSbt8YX9vIqVf56h3UsO-40" value="Agentes" style="text;strokeColor=none;fillColor=none;align=left;verticalAlign=top;spacingLeft=4;spacingRight=4;overflow=hidden;rotatable=0;points=[[0,0.5],[1,0.5]];portConstraint=eastwest;whiteSpace=wrap;html=1;" parent="gSbt8YX9vIqVf56h3UsO-31" vertex="1">
          <mxGeometry y="234" width="140" height="26" as="geometry" />
        </mxCell>
        <mxCell id="gSbt8YX9vIqVf56h3UsO-41" value="Representantes" style="text;strokeColor=none;fillColor=none;align=left;verticalAlign=top;spacingLeft=4;spacingRight=4;overflow=hidden;rotatable=0;points=[[0,0.5],[1,0.5]];portConstraint=eastwest;whiteSpace=wrap;html=1;" parent="gSbt8YX9vIqVf56h3UsO-31" vertex="1">
          <mxGeometry y="260" width="140" height="26" as="geometry" />
        </mxCell>
        <mxCell id="gSbt8YX9vIqVf56h3UsO-42" value="ContratosPublicitários" style="text;strokeColor=none;fillColor=none;align=left;verticalAlign=top;spacingLeft=4;spacingRight=4;overflow=hidden;rotatable=0;points=[[0,0.5],[1,0.5]];portConstraint=eastwest;whiteSpace=wrap;html=1;" parent="gSbt8YX9vIqVf56h3UsO-31" vertex="1">
          <mxGeometry y="286" width="140" height="26" as="geometry" />
        </mxCell>
        <mxCell id="gSbt8YX9vIqVf56h3UsO-43" value="CampanhasSociais" style="text;strokeColor=none;fillColor=none;align=left;verticalAlign=top;spacingLeft=4;spacingRight=4;overflow=hidden;rotatable=0;points=[[0,0.5],[1,0.5]];portConstraint=eastwest;whiteSpace=wrap;html=1;" parent="gSbt8YX9vIqVf56h3UsO-31" vertex="1">
          <mxGeometry y="312" width="140" height="26" as="geometry" />
        </mxCell>
        <mxCell id="gSbt8YX9vIqVf56h3UsO-44" value="Partida" style="swimlane;fontStyle=0;childLayout=stackLayout;horizontal=1;startSize=26;fillColor=none;horizontalStack=0;resizeParent=1;resizeParentMax=0;resizeLast=0;collapsible=1;marginBottom=0;whiteSpace=wrap;html=1;" parent="1" vertex="1">
          <mxGeometry x="-180" y="506" width="140" height="104" as="geometry" />
        </mxCell>
        <mxCell id="gSbt8YX9vIqVf56h3UsO-45" value="Data" style="text;strokeColor=none;fillColor=none;align=left;verticalAlign=top;spacingLeft=4;spacingRight=4;overflow=hidden;rotatable=0;points=[[0,0.5],[1,0.5]];portConstraint=eastwest;whiteSpace=wrap;html=1;" parent="gSbt8YX9vIqVf56h3UsO-44" vertex="1">
          <mxGeometry y="26" width="140" height="26" as="geometry" />
        </mxCell>
        <mxCell id="gSbt8YX9vIqVf56h3UsO-46" value="Local" style="text;strokeColor=none;fillColor=none;align=left;verticalAlign=top;spacingLeft=4;spacingRight=4;overflow=hidden;rotatable=0;points=[[0,0.5],[1,0.5]];portConstraint=eastwest;whiteSpace=wrap;html=1;" parent="gSbt8YX9vIqVf56h3UsO-44" vertex="1">
          <mxGeometry y="52" width="140" height="26" as="geometry" />
        </mxCell>
        <mxCell id="gSbt8YX9vIqVf56h3UsO-47" value="Resultado" style="text;strokeColor=none;fillColor=none;align=left;verticalAlign=top;spacingLeft=4;spacingRight=4;overflow=hidden;rotatable=0;points=[[0,0.5],[1,0.5]];portConstraint=eastwest;whiteSpace=wrap;html=1;" parent="gSbt8YX9vIqVf56h3UsO-44" vertex="1">
          <mxGeometry y="78" width="140" height="26" as="geometry" />
        </mxCell>
        <mxCell id="gSbt8YX9vIqVf56h3UsO-48" value="Comentario" style="swimlane;fontStyle=0;childLayout=stackLayout;horizontal=1;startSize=26;fillColor=none;horizontalStack=0;resizeParent=1;resizeParentMax=0;resizeLast=0;collapsible=1;marginBottom=0;whiteSpace=wrap;html=1;" parent="1" vertex="1">
          <mxGeometry x="-420" y="708" width="140" height="130" as="geometry" />
        </mxCell>
        <mxCell id="gSbt8YX9vIqVf56h3UsO-49" value="Texto" style="text;strokeColor=none;fillColor=none;align=left;verticalAlign=top;spacingLeft=4;spacingRight=4;overflow=hidden;rotatable=0;points=[[0,0.5],[1,0.5]];portConstraint=eastwest;whiteSpace=wrap;html=1;" parent="gSbt8YX9vIqVf56h3UsO-48" vertex="1">
          <mxGeometry y="26" width="140" height="26" as="geometry" />
        </mxCell>
        <mxCell id="gSbt8YX9vIqVf56h3UsO-50" value="Avaliacoes" style="text;strokeColor=none;fillColor=none;align=left;verticalAlign=top;spacingLeft=4;spacingRight=4;overflow=hidden;rotatable=0;points=[[0,0.5],[1,0.5]];portConstraint=eastwest;whiteSpace=wrap;html=1;" parent="gSbt8YX9vIqVf56h3UsO-48" vertex="1">
          <mxGeometry y="52" width="140" height="26" as="geometry" />
        </mxCell>
        <mxCell id="gSbt8YX9vIqVf56h3UsO-51" value="EhDestaque" style="text;strokeColor=none;fillColor=none;align=left;verticalAlign=top;spacingLeft=4;spacingRight=4;overflow=hidden;rotatable=0;points=[[0,0.5],[1,0.5]];portConstraint=eastwest;whiteSpace=wrap;html=1;" parent="gSbt8YX9vIqVf56h3UsO-48" vertex="1">
          <mxGeometry y="78" width="140" height="26" as="geometry" />
        </mxCell>
        <mxCell id="gSbt8YX9vIqVf56h3UsO-79" value="Autor: Usuario" style="text;strokeColor=none;fillColor=none;align=left;verticalAlign=top;spacingLeft=4;spacingRight=4;overflow=hidden;rotatable=0;points=[[0,0.5],[1,0.5]];portConstraint=eastwest;whiteSpace=wrap;html=1;" parent="gSbt8YX9vIqVf56h3UsO-48" vertex="1">
          <mxGeometry y="104" width="140" height="26" as="geometry" />
        </mxCell>
        <mxCell id="gSbt8YX9vIqVf56h3UsO-52" value="" style="endArrow=diamondThin;endFill=1;endSize=24;html=1;rounded=0;entryX=1;entryY=0.5;entryDx=0;entryDy=0;exitX=0;exitY=0.5;exitDx=0;exitDy=0;" parent="1" source="gSbt8YX9vIqVf56h3UsO-29" target="gSbt8YX9vIqVf56h3UsO-17" edge="1">
          <mxGeometry width="160" relative="1" as="geometry">
            <mxPoint x="-220" y="410" as="sourcePoint" />
            <mxPoint x="-113" y="420" as="targetPoint" />
          </mxGeometry>
        </mxCell>
        <mxCell id="gSbt8YX9vIqVf56h3UsO-54" value="" style="endArrow=diamondThin;endFill=1;endSize=24;html=1;rounded=0;entryX=1;entryY=0.5;entryDx=0;entryDy=0;exitX=0;exitY=0.5;exitDx=0;exitDy=0;" parent="1" source="gSbt8YX9vIqVf56h3UsO-35" target="gSbt8YX9vIqVf56h3UsO-29" edge="1">
          <mxGeometry width="160" relative="1" as="geometry">
            <mxPoint x="40" y="420" as="sourcePoint" />
            <mxPoint x="200" y="420" as="targetPoint" />
          </mxGeometry>
        </mxCell>
        <mxCell id="gSbt8YX9vIqVf56h3UsO-55" value="Notificacao" style="swimlane;fontStyle=0;childLayout=stackLayout;horizontal=1;startSize=26;fillColor=none;horizontalStack=0;resizeParent=1;resizeParentMax=0;resizeLast=0;collapsible=1;marginBottom=0;whiteSpace=wrap;html=1;" parent="1" vertex="1">
          <mxGeometry x="-80" y="900" width="140" height="78" as="geometry" />
        </mxCell>
        <mxCell id="gSbt8YX9vIqVf56h3UsO-56" value="Mensagem" style="text;strokeColor=none;fillColor=none;align=left;verticalAlign=top;spacingLeft=4;spacingRight=4;overflow=hidden;rotatable=0;points=[[0,0.5],[1,0.5]];portConstraint=eastwest;whiteSpace=wrap;html=1;" parent="gSbt8YX9vIqVf56h3UsO-55" vertex="1">
          <mxGeometry y="26" width="140" height="26" as="geometry" />
        </mxCell>
        <mxCell id="gSbt8YX9vIqVf56h3UsO-57" value="Data" style="text;strokeColor=none;fillColor=none;align=left;verticalAlign=top;spacingLeft=4;spacingRight=4;overflow=hidden;rotatable=0;points=[[0,0.5],[1,0.5]];portConstraint=eastwest;whiteSpace=wrap;html=1;" parent="gSbt8YX9vIqVf56h3UsO-55" vertex="1">
          <mxGeometry y="52" width="140" height="26" as="geometry" />
        </mxCell>
        <mxCell id="gSbt8YX9vIqVf56h3UsO-98" style="edgeStyle=orthogonalEdgeStyle;rounded=0;orthogonalLoop=1;jettySize=auto;html=1;exitX=0.5;exitY=0;exitDx=0;exitDy=0;endArrow=none;startFill=0;entryX=0.493;entryY=1.038;entryDx=0;entryDy=0;entryPerimeter=0;" parent="1" source="gSbt8YX9vIqVf56h3UsO-59" target="gSbt8YX9vIqVf56h3UsO-43" edge="1">
          <mxGeometry relative="1" as="geometry">
            <mxPoint x="180" y="550" as="targetPoint" />
          </mxGeometry>
        </mxCell>
        <mxCell id="gSbt8YX9vIqVf56h3UsO-59" value="Usuário" style="swimlane;fontStyle=0;childLayout=stackLayout;horizontal=1;startSize=26;fillColor=none;horizontalStack=0;resizeParent=1;resizeParentMax=0;resizeLast=0;collapsible=1;marginBottom=0;whiteSpace=wrap;html=1;" parent="1" vertex="1">
          <mxGeometry x="109" y="620" width="140" height="104" as="geometry" />
        </mxCell>
        <mxCell id="gSbt8YX9vIqVf56h3UsO-60" value="Nome" style="text;strokeColor=none;fillColor=none;align=left;verticalAlign=top;spacingLeft=4;spacingRight=4;overflow=hidden;rotatable=0;points=[[0,0.5],[1,0.5]];portConstraint=eastwest;whiteSpace=wrap;html=1;" parent="gSbt8YX9vIqVf56h3UsO-59" vertex="1">
          <mxGeometry y="26" width="140" height="26" as="geometry" />
        </mxCell>
        <mxCell id="gSbt8YX9vIqVf56h3UsO-61" value="Email" style="text;strokeColor=none;fillColor=none;align=left;verticalAlign=top;spacingLeft=4;spacingRight=4;overflow=hidden;rotatable=0;points=[[0,0.5],[1,0.5]];portConstraint=eastwest;whiteSpace=wrap;html=1;" parent="gSbt8YX9vIqVf56h3UsO-59" vertex="1">
          <mxGeometry y="52" width="140" height="26" as="geometry" />
        </mxCell>
        <mxCell id="gSbt8YX9vIqVf56h3UsO-62" value="Status" style="text;strokeColor=none;fillColor=none;align=left;verticalAlign=top;spacingLeft=4;spacingRight=4;overflow=hidden;rotatable=0;points=[[0,0.5],[1,0.5]];portConstraint=eastwest;whiteSpace=wrap;html=1;" parent="gSbt8YX9vIqVf56h3UsO-59" vertex="1">
          <mxGeometry y="78" width="140" height="26" as="geometry" />
        </mxCell>
        <mxCell id="gSbt8YX9vIqVf56h3UsO-99" style="edgeStyle=orthogonalEdgeStyle;rounded=0;orthogonalLoop=1;jettySize=auto;html=1;exitX=0.5;exitY=0;exitDx=0;exitDy=0;endArrow=none;startFill=0;" parent="1" source="gSbt8YX9vIqVf56h3UsO-75" edge="1">
          <mxGeometry relative="1" as="geometry">
            <mxPoint x="179" y="730" as="targetPoint" />
          </mxGeometry>
        </mxCell>
        <mxCell id="gSbt8YX9vIqVf56h3UsO-75" value="AvaliacaoPartida" style="swimlane;fontStyle=0;childLayout=stackLayout;horizontal=1;startSize=26;fillColor=none;horizontalStack=0;resizeParent=1;resizeParentMax=0;resizeLast=0;collapsible=1;marginBottom=0;whiteSpace=wrap;html=1;" parent="1" vertex="1">
          <mxGeometry x="109" y="770" width="140" height="104" as="geometry" />
        </mxCell>
        <mxCell id="gSbt8YX9vIqVf56h3UsO-76" value="Nota" style="text;strokeColor=none;fillColor=none;align=left;verticalAlign=top;spacingLeft=4;spacingRight=4;overflow=hidden;rotatable=0;points=[[0,0.5],[1,0.5]];portConstraint=eastwest;whiteSpace=wrap;html=1;" parent="gSbt8YX9vIqVf56h3UsO-75" vertex="1">
          <mxGeometry y="26" width="140" height="26" as="geometry" />
        </mxCell>
        <mxCell id="gSbt8YX9vIqVf56h3UsO-77" value="Comentario" style="text;strokeColor=none;fillColor=none;align=left;verticalAlign=top;spacingLeft=4;spacingRight=4;overflow=hidden;rotatable=0;points=[[0,0.5],[1,0.5]];portConstraint=eastwest;whiteSpace=wrap;html=1;" parent="gSbt8YX9vIqVf56h3UsO-75" vertex="1">
          <mxGeometry y="52" width="140" height="26" as="geometry" />
        </mxCell>
        <mxCell id="gSbt8YX9vIqVf56h3UsO-78" value="EhDestaque" style="text;strokeColor=none;fillColor=none;align=left;verticalAlign=top;spacingLeft=4;spacingRight=4;overflow=hidden;rotatable=0;points=[[0,0.5],[1,0.5]];portConstraint=eastwest;whiteSpace=wrap;html=1;" parent="gSbt8YX9vIqVf56h3UsO-75" vertex="1">
          <mxGeometry y="78" width="140" height="26" as="geometry" />
        </mxCell>
        <mxCell id="gSbt8YX9vIqVf56h3UsO-80" value="AvaliacaoAtleta" style="swimlane;fontStyle=0;childLayout=stackLayout;horizontal=1;startSize=26;fillColor=none;horizontalStack=0;resizeParent=1;resizeParentMax=0;resizeLast=0;collapsible=1;marginBottom=0;whiteSpace=wrap;html=1;" parent="1" vertex="1">
          <mxGeometry x="-180" y="708" width="140" height="104" as="geometry" />
        </mxCell>
        <mxCell id="gSbt8YX9vIqVf56h3UsO-81" value="Nota" style="text;strokeColor=none;fillColor=none;align=left;verticalAlign=top;spacingLeft=4;spacingRight=4;overflow=hidden;rotatable=0;points=[[0,0.5],[1,0.5]];portConstraint=eastwest;whiteSpace=wrap;html=1;" parent="gSbt8YX9vIqVf56h3UsO-80" vertex="1">
          <mxGeometry y="26" width="140" height="26" as="geometry" />
        </mxCell>
        <mxCell id="gSbt8YX9vIqVf56h3UsO-82" value="Comentario" style="text;strokeColor=none;fillColor=none;align=left;verticalAlign=top;spacingLeft=4;spacingRight=4;overflow=hidden;rotatable=0;points=[[0,0.5],[1,0.5]];portConstraint=eastwest;whiteSpace=wrap;html=1;" parent="gSbt8YX9vIqVf56h3UsO-80" vertex="1">
          <mxGeometry y="52" width="140" height="26" as="geometry" />
        </mxCell>
        <mxCell id="gSbt8YX9vIqVf56h3UsO-83" value="EhDestaque" style="text;strokeColor=none;fillColor=none;align=left;verticalAlign=top;spacingLeft=4;spacingRight=4;overflow=hidden;rotatable=0;points=[[0,0.5],[1,0.5]];portConstraint=eastwest;whiteSpace=wrap;html=1;" parent="gSbt8YX9vIqVf56h3UsO-80" vertex="1">
          <mxGeometry y="78" width="140" height="26" as="geometry" />
        </mxCell>
        <mxCell id="gSbt8YX9vIqVf56h3UsO-100" style="edgeStyle=orthogonalEdgeStyle;rounded=0;orthogonalLoop=1;jettySize=auto;html=1;exitX=0.5;exitY=0;exitDx=0;exitDy=0;endArrow=none;startFill=0;entryX=0.493;entryY=1;entryDx=0;entryDy=0;entryPerimeter=0;" parent="1" source="gSbt8YX9vIqVf56h3UsO-85" target="gSbt8YX9vIqVf56h3UsO-78" edge="1">
          <mxGeometry relative="1" as="geometry">
            <mxPoint x="179" y="880" as="targetPoint" />
          </mxGeometry>
        </mxCell>
        <mxCell id="gSbt8YX9vIqVf56h3UsO-85" value="ListaFavoritos" style="swimlane;fontStyle=0;childLayout=stackLayout;horizontal=1;startSize=26;fillColor=none;horizontalStack=0;resizeParent=1;resizeParentMax=0;resizeLast=0;collapsible=1;marginBottom=0;whiteSpace=wrap;html=1;" parent="1" vertex="1">
          <mxGeometry x="108" y="920" width="140" height="78" as="geometry" />
        </mxCell>
        <mxCell id="gSbt8YX9vIqVf56h3UsO-86" value="Nome" style="text;strokeColor=none;fillColor=none;align=left;verticalAlign=top;spacingLeft=4;spacingRight=4;overflow=hidden;rotatable=0;points=[[0,0.5],[1,0.5]];portConstraint=eastwest;whiteSpace=wrap;html=1;" parent="gSbt8YX9vIqVf56h3UsO-85" vertex="1">
          <mxGeometry y="26" width="140" height="26" as="geometry" />
        </mxCell>
        <mxCell id="gSbt8YX9vIqVf56h3UsO-87" value="Partida" style="text;strokeColor=none;fillColor=none;align=left;verticalAlign=top;spacingLeft=4;spacingRight=4;overflow=hidden;rotatable=0;points=[[0,0.5],[1,0.5]];portConstraint=eastwest;whiteSpace=wrap;html=1;" parent="gSbt8YX9vIqVf56h3UsO-85" vertex="1">
          <mxGeometry y="52" width="140" height="26" as="geometry" />
        </mxCell>
        <mxCell id="gSbt8YX9vIqVf56h3UsO-91" style="edgeStyle=orthogonalEdgeStyle;rounded=0;orthogonalLoop=1;jettySize=auto;html=1;exitX=0.5;exitY=0;exitDx=0;exitDy=0;entryX=0.5;entryY=1.038;entryDx=0;entryDy=0;entryPerimeter=0;endArrow=none;startFill=0;" parent="1" source="gSbt8YX9vIqVf56h3UsO-48" target="gSbt8YX9vIqVf56h3UsO-23" edge="1">
          <mxGeometry relative="1" as="geometry" />
        </mxCell>
        <mxCell id="gSbt8YX9vIqVf56h3UsO-94" value="" style="endArrow=diamondThin;endFill=1;endSize=24;html=1;rounded=0;exitX=0;exitY=0.5;exitDx=0;exitDy=0;entryX=1;entryY=0.5;entryDx=0;entryDy=0;" parent="1" source="gSbt8YX9vIqVf56h3UsO-82" target="gSbt8YX9vIqVf56h3UsO-50" edge="1">
          <mxGeometry width="160" relative="1" as="geometry">
            <mxPoint x="-330" y="640" as="sourcePoint" />
            <mxPoint x="-170" y="640" as="targetPoint" />
          </mxGeometry>
        </mxCell>
        <mxCell id="gSbt8YX9vIqVf56h3UsO-95" style="edgeStyle=orthogonalEdgeStyle;rounded=0;orthogonalLoop=1;jettySize=auto;html=1;exitX=0.5;exitY=0;exitDx=0;exitDy=0;entryX=0.5;entryY=1.192;entryDx=0;entryDy=0;entryPerimeter=0;endArrow=none;startFill=0;" parent="1" source="gSbt8YX9vIqVf56h3UsO-80" target="gSbt8YX9vIqVf56h3UsO-47" edge="1">
          <mxGeometry relative="1" as="geometry">
            <Array as="points">
              <mxPoint x="-110" y="640" />
              <mxPoint x="-110" y="640" />
            </Array>
          </mxGeometry>
        </mxCell>
        <mxCell id="gSbt8YX9vIqVf56h3UsO-97" value="" style="endArrow=diamondThin;endFill=1;endSize=24;html=1;rounded=0;entryX=1;entryY=0.5;entryDx=0;entryDy=0;exitX=0.5;exitY=0;exitDx=0;exitDy=0;" parent="1" source="gSbt8YX9vIqVf56h3UsO-55" target="gSbt8YX9vIqVf56h3UsO-46" edge="1">
          <mxGeometry width="160" relative="1" as="geometry">
            <mxPoint x="-110" y="640" as="sourcePoint" />
            <mxPoint x="50" y="640" as="targetPoint" />
            <Array as="points">
              <mxPoint x="-10" y="570" />
            </Array>
          </mxGeometry>
        </mxCell>
        <mxCell id="gSbt8YX9vIqVf56h3UsO-102" value="&lt;h3 style=&quot;font-weight: var(--ds-font-weight-strong); line-height: 1.5; margin: calc(var(--ds-md-zoom)*16px)0 calc(var(--ds-md-zoom)*12px)0; font-family: DeepSeek-CJK-patch, Inter, system-ui, -apple-system, BlinkMacSystemFont, &amp;quot;Segoe UI&amp;quot;, Roboto, &amp;quot;Noto Sans&amp;quot;, Ubuntu, Cantarell, &amp;quot;Helvetica Neue&amp;quot;, Oxygen, &amp;quot;Open Sans&amp;quot;, sans-serif;&quot;&gt;&lt;div style=&quot;color: rgb(34, 34, 34); font-family: Arial, Helvetica, sans-serif; font-size: small; background-color: rgb(255, 255, 255);&quot; dir=&quot;auto&quot;&gt;Bancos NoSQL e justificativas:&lt;/div&gt;&lt;div style=&quot;color: rgb(34, 34, 34); font-family: Arial, Helvetica, sans-serif; font-size: small; background-color: rgb(255, 255, 255);&quot; dir=&quot;auto&quot;&gt;&lt;br&gt;&lt;/div&gt;&lt;div style=&quot;color: rgb(34, 34, 34); font-family: Arial, Helvetica, sans-serif; font-size: small; background-color: rgb(255, 255, 255);&quot; dir=&quot;auto&quot;&gt;1) BD orientado a documentos (MongoDB):&lt;/div&gt;&lt;div style=&quot;color: rgb(34, 34, 34); font-family: Arial, Helvetica, sans-serif; font-size: small; background-color: rgb(255, 255, 255);&quot; dir=&quot;auto&quot;&gt;&lt;br&gt;&lt;/div&gt;&lt;div style=&quot;color: rgb(34, 34, 34); font-family: Arial, Helvetica, sans-serif; font-size: small; background-color: rgb(255, 255, 255);&quot; dir=&quot;auto&quot;&gt;O MongoDB seria utilizado para armazenar os agregados principais do sistema, como &#39;EventoEsportivo&#39;, &#39;Equipe&#39;, &#39;Atleta&#39; e &#39;Usuario&#39;. Foi escolhido um banco orientado a documentos, devido à hierarquia dos dados, onde informações como edições de eventos, partidas e avaliações estão relacionadas.&amp;nbsp;&lt;/div&gt;&lt;div style=&quot;color: rgb(34, 34, 34); font-family: Arial, Helvetica, sans-serif; font-size: small; background-color: rgb(255, 255, 255);&quot; dir=&quot;auto&quot;&gt;&lt;br&gt;&lt;/div&gt;&lt;div style=&quot;color: rgb(34, 34, 34); font-family: Arial, Helvetica, sans-serif; font-size: small; background-color: rgb(255, 255, 255);&quot; dir=&quot;auto&quot;&gt;Por exemplo, um &#39;EventoEsportivo&#39; contém várias &#39;Edicao&#39;, que, por sua vez, agregam diversas `Partida`. Essa estrutura permite consultas eficientes, como recuperar todas as partidas de um torneio específico sem a necessidade de operações complexas de junção (joins), comum em bancos relacionais. Além disso, a flexibilidade do MongoDB facilita a inclusão de campos dinâmicos, como estatísticas de atletas ou histórico de lesões, que podem variar conforme o esporte. Isto é,&amp;nbsp;&lt;span style=&quot;background-color: light-dark(rgb(255, 255, 255), rgb(18, 18, 18)); color: light-dark(rgb(34, 34, 34), rgb(208, 208, 208)); font-weight: var(--ds-font-weight-strong);&quot;&gt;o MongoDB é ideal para lidar com altas cargas de escrita e leitura.&amp;nbsp;&amp;nbsp;&lt;/span&gt;&lt;/div&gt;&lt;div style=&quot;color: rgb(34, 34, 34); font-family: Arial, Helvetica, sans-serif; font-size: small; background-color: rgb(255, 255, 255);&quot; dir=&quot;auto&quot;&gt;&lt;br&gt;&lt;/div&gt;&lt;div style=&quot;color: rgb(34, 34, 34); font-family: Arial, Helvetica, sans-serif; font-size: small; background-color: rgb(255, 255, 255);&quot; dir=&quot;auto&quot;&gt;2) BD chave-valor (Redis):&lt;/div&gt;&lt;div style=&quot;color: rgb(34, 34, 34); font-family: Arial, Helvetica, sans-serif; font-size: small; background-color: rgb(255, 255, 255);&quot; dir=&quot;auto&quot;&gt;&amp;nbsp;&amp;nbsp;&lt;/div&gt;&lt;div style=&quot;color: rgb(34, 34, 34); font-family: Arial, Helvetica, sans-serif; font-size: small; background-color: rgb(255, 255, 255);&quot; dir=&quot;auto&quot;&gt;O Redis seria usado para armazenar informações que precisam ser acessadas rapidamente, como notificações e status de usuários. Um exemplo é o gerenciamento de &#39;Notificacao&#39;, onde os usuários recebem alertas em tempo real.&amp;nbsp;&amp;nbsp;&lt;/div&gt;&lt;div style=&quot;color: rgb(34, 34, 34); font-family: Arial, Helvetica, sans-serif; font-size: small; background-color: rgb(255, 255, 255);&quot; dir=&quot;auto&quot;&gt;&lt;br&gt;&lt;/div&gt;&lt;div style=&quot;color: rgb(34, 34, 34); font-family: Arial, Helvetica, sans-serif; font-size: small; background-color: rgb(255, 255, 255);&quot; dir=&quot;auto&quot;&gt;A escolha do Redis é dado pela rápida leitura e escrita de dados, ter uma estrutura simples (onde só guarda chave e valor) e a sua eficiência, visto que lida bem com muitas atualizações ao mesmo tempo.&lt;/div&gt;&lt;div style=&quot;color: rgb(34, 34, 34); font-family: Arial, Helvetica, sans-serif; font-size: small; background-color: rgb(255, 255, 255);&quot; dir=&quot;auto&quot;&gt;&lt;br&gt;&lt;/div&gt;&lt;div style=&quot;color: rgb(34, 34, 34); font-family: Arial, Helvetica, sans-serif; font-size: small; background-color: rgb(255, 255, 255);&quot; dir=&quot;auto&quot;&gt;3) BD de família de colunas (Cassandra):&lt;/div&gt;&lt;div style=&quot;color: rgb(34, 34, 34); font-family: Arial, Helvetica, sans-serif; font-size: small; background-color: rgb(255, 255, 255);&quot; dir=&quot;auto&quot;&gt;&amp;nbsp;&amp;nbsp;&lt;/div&gt;&lt;div style=&quot;color: rgb(34, 34, 34); font-family: Arial, Helvetica, sans-serif; font-size: small; background-color: rgb(255, 255, 255);&quot; dir=&quot;auto&quot;&gt;O Cassandra é a melhor opção para guardar informações que precisam ser organizadas por categorias e consultadas de forma eficiente, principalmente dados históricos e estatísticas. Por exemplo, as &#39;Estatisticas&#39; de atletas por temporada ou métricas agregadas de partidas (ex.: média de público por ano).&lt;/div&gt;&lt;div style=&quot;color: rgb(34, 34, 34); font-family: Arial, Helvetica, sans-serif; font-size: small; background-color: rgb(255, 255, 255);&quot; dir=&quot;auto&quot;&gt;&lt;br&gt;&lt;/div&gt;&lt;div style=&quot;color: rgb(34, 34, 34); font-family: Arial, Helvetica, sans-serif; font-size: small; background-color: rgb(255, 255, 255);&quot; dir=&quot;auto&quot;&gt;Este modelo de família de colunas permite consultas eficientes sobre grandes volumes de dados, principalmente quando o padrão de acesso envolve filtros por intervalos de tempo. Por exemplo, para responder à consulta &quot;Quais foram os artilheiros da copa do mundo entre 2010 e 2022?&quot;, o Cassandra recupera apenas as colunas relevantes (gols por ano) sem precisar buscar por todos os dados.&amp;nbsp;&lt;span style=&quot;background-color: light-dark(rgb(255, 255, 255), rgb(18, 18, 18)); color: light-dark(rgb(34, 34, 34), rgb(208, 208, 208)); font-weight: var(--ds-font-weight-strong);&quot;&gt;Além disso, o Cassandra é tolerante a falhas e é escalável, características importante para um sistema que pode crescer rapidamente.&lt;/span&gt;&lt;/div&gt;&lt;div style=&quot;color: rgb(34, 34, 34); font-family: Arial, Helvetica, sans-serif; font-size: small; background-color: rgb(255, 255, 255);&quot; dir=&quot;auto&quot;&gt;&lt;br&gt;&lt;/div&gt;&lt;div style=&quot;color: rgb(34, 34, 34); font-family: Arial, Helvetica, sans-serif; font-size: small; background-color: rgb(255, 255, 255);&quot; dir=&quot;auto&quot;&gt;------------------------------------------------------------------------------------------------------------------------------------------------------------------------------------------&lt;/div&gt;&lt;div style=&quot;color: rgb(34, 34, 34); font-family: Arial, Helvetica, sans-serif; font-size: small; background-color: rgb(255, 255, 255);&quot; dir=&quot;auto&quot;&gt;&lt;br&gt;&lt;/div&gt;&lt;div style=&quot;color: rgb(34, 34, 34); font-family: Arial, Helvetica, sans-serif; font-size: small; background-color: rgb(255, 255, 255);&quot; dir=&quot;auto&quot;&gt;-&amp;gt; Consultas com melhor desempenho:&lt;/div&gt;&lt;div style=&quot;color: rgb(34, 34, 34); font-family: Arial, Helvetica, sans-serif; font-size: small; background-color: rgb(255, 255, 255);&quot; dir=&quot;auto&quot;&gt;&amp;nbsp; - As operações que envolvem agregados aninhados, como &quot;Listar os jogadores de uma equipe&quot; ou &quot;Recuperar partidas de um torneio&quot;, são otimizadas no MongoDB devido ao local dos dados (todos os relacionados estão no mesmo documento).&amp;nbsp;&amp;nbsp;&lt;/div&gt;&lt;div style=&quot;color: rgb(34, 34, 34); font-family: Arial, Helvetica, sans-serif; font-size: small; background-color: rgb(255, 255, 255);&quot; dir=&quot;auto&quot;&gt;&amp;nbsp; - Buscas por chave, como &quot;Notificações do usuário X&quot;, são resolvidas instantaneamente pelo Redis.&amp;nbsp;&amp;nbsp;&lt;/div&gt;&lt;div style=&quot;color: rgb(34, 34, 34); font-family: Arial, Helvetica, sans-serif; font-size: small; background-color: rgb(255, 255, 255);&quot; dir=&quot;auto&quot;&gt;&amp;nbsp; - Agregações temporais (ex.: &quot;Estatísticas de um atleta em 2025&quot;) são eficientes no Cassandra graças ao modelo de família de colunas.&amp;nbsp;&amp;nbsp;&lt;/div&gt;&lt;div style=&quot;color: rgb(34, 34, 34); font-family: Arial, Helvetica, sans-serif; font-size: small; background-color: rgb(255, 255, 255);&quot; dir=&quot;auto&quot;&gt;&lt;br&gt;&lt;/div&gt;&lt;div style=&quot;color: rgb(34, 34, 34); font-family: Arial, Helvetica, sans-serif; font-size: small; background-color: rgb(255, 255, 255);&quot; dir=&quot;auto&quot;&gt;-&amp;gt; Consultas com menor desempenho:&amp;nbsp;&amp;nbsp;&lt;/div&gt;&lt;div style=&quot;color: rgb(34, 34, 34); font-family: Arial, Helvetica, sans-serif; font-size: small; background-color: rgb(255, 255, 255);&quot; dir=&quot;auto&quot;&gt;&amp;nbsp; - Consultas que exigem junções entre agregados independentes, como &quot;Atletas que jogaram em mais de uma modalidade&quot;, podem ser menos eficientes.&amp;nbsp;&lt;/div&gt;&lt;div style=&quot;color: rgb(34, 34, 34); font-family: Arial, Helvetica, sans-serif; font-size: small; background-color: rgb(255, 255, 255);&quot; dir=&quot;auto&quot;&gt;&amp;nbsp; - Operações complexas (ex.: &quot;Média de notas por estádio&quot;) podem exigir ferramentas complementares, como pipelines de agregação do MongoDB.&lt;/div&gt;&lt;/h3&gt;" style="text;html=1;whiteSpace=wrap;overflow=hidden;rounded=0;" parent="1" vertex="1">
          <mxGeometry x="414" y="195" width="810" height="965" as="geometry" />
        </mxCell>
        <mxCell id="NpQn2CzZ2_SNWyGe-Qzi-1" value="&lt;font style=&quot;font-size: 17px;&quot;&gt;*&lt;/font&gt;" style="text;html=1;align=center;verticalAlign=middle;whiteSpace=wrap;rounded=0;" vertex="1" parent="1">
          <mxGeometry x="-230" y="300" width="60" height="30" as="geometry" />
        </mxCell>
        <mxCell id="NpQn2CzZ2_SNWyGe-Qzi-2" value="&lt;font style=&quot;font-size: 17px;&quot;&gt;*&lt;/font&gt;" style="text;html=1;align=center;verticalAlign=middle;whiteSpace=wrap;rounded=0;" vertex="1" parent="1">
          <mxGeometry x="70" y="300" width="60" height="30" as="geometry" />
        </mxCell>
        <mxCell id="NpQn2CzZ2_SNWyGe-Qzi-3" value="&lt;font style=&quot;font-size: 17px;&quot;&gt;*&lt;/font&gt;" style="text;html=1;align=center;verticalAlign=middle;whiteSpace=wrap;rounded=0;" vertex="1" parent="1">
          <mxGeometry x="157" y="752" width="60" height="30" as="geometry" />
        </mxCell>
        <mxCell id="NpQn2CzZ2_SNWyGe-Qzi-4" value="&lt;font style=&quot;font-size: 17px;&quot;&gt;*&lt;/font&gt;" style="text;html=1;align=center;verticalAlign=middle;whiteSpace=wrap;rounded=0;" vertex="1" parent="1">
          <mxGeometry x="-370" y="690" width="60" height="30" as="geometry" />
        </mxCell>
        <mxCell id="NpQn2CzZ2_SNWyGe-Qzi-6" value="&lt;font style=&quot;font-size: 17px;&quot;&gt;*&lt;/font&gt;" style="text;html=1;align=center;verticalAlign=middle;whiteSpace=wrap;rounded=0;" vertex="1" parent="1">
          <mxGeometry x="-28" y="879" width="60" height="30" as="geometry" />
        </mxCell>
        <mxCell id="NpQn2CzZ2_SNWyGe-Qzi-7" value="&lt;font style=&quot;font-size: 17px;&quot;&gt;*&lt;/font&gt;" style="text;html=1;align=center;verticalAlign=middle;whiteSpace=wrap;rounded=0;" vertex="1" parent="1">
          <mxGeometry x="155" y="873" width="60" height="30" as="geometry" />
        </mxCell>
        <mxCell id="NpQn2CzZ2_SNWyGe-Qzi-8" value="&lt;font style=&quot;font-size: 17px;&quot;&gt;*&lt;/font&gt;" style="text;html=1;align=center;verticalAlign=middle;whiteSpace=wrap;rounded=0;" vertex="1" parent="1">
          <mxGeometry x="-370" y="430" width="60" height="30" as="geometry" />
        </mxCell>
        <mxCell id="NpQn2CzZ2_SNWyGe-Qzi-9" value="&lt;font style=&quot;font-size: 17px;&quot;&gt;1&lt;/font&gt;" style="text;html=1;align=center;verticalAlign=middle;whiteSpace=wrap;rounded=0;" vertex="1" parent="1">
          <mxGeometry x="-370" y="364" width="60" height="30" as="geometry" />
        </mxCell>
        <mxCell id="NpQn2CzZ2_SNWyGe-Qzi-10" value="&lt;font style=&quot;font-size: 17px;&quot;&gt;1&lt;/font&gt;" style="text;html=1;align=center;verticalAlign=middle;whiteSpace=wrap;rounded=0;" vertex="1" parent="1">
          <mxGeometry x="-370" y="610" width="60" height="30" as="geometry" />
        </mxCell>
        <mxCell id="NpQn2CzZ2_SNWyGe-Qzi-11" value="&lt;font style=&quot;font-size: 17px;&quot;&gt;1&lt;/font&gt;" style="text;html=1;align=center;verticalAlign=middle;whiteSpace=wrap;rounded=0;" vertex="1" parent="1">
          <mxGeometry x="-130" y="610" width="60" height="30" as="geometry" />
        </mxCell>
        <mxCell id="NpQn2CzZ2_SNWyGe-Qzi-12" value="&lt;font style=&quot;font-size: 17px;&quot;&gt;*&lt;/font&gt;" style="text;html=1;align=center;verticalAlign=middle;whiteSpace=wrap;rounded=0;" vertex="1" parent="1">
          <mxGeometry x="-223" y="753" width="60" height="30" as="geometry" />
        </mxCell>
        <mxCell id="NpQn2CzZ2_SNWyGe-Qzi-13" value="&lt;font style=&quot;font-size: 17px;&quot;&gt;*&lt;/font&gt;" style="text;html=1;align=center;verticalAlign=middle;whiteSpace=wrap;rounded=0;" vertex="1" parent="1">
          <mxGeometry x="-128" y="687" width="60" height="30" as="geometry" />
        </mxCell>
        <mxCell id="NpQn2CzZ2_SNWyGe-Qzi-14" value="&lt;font style=&quot;font-size: 17px;&quot;&gt;1&lt;/font&gt;" style="text;html=1;align=center;verticalAlign=middle;whiteSpace=wrap;rounded=0;" vertex="1" parent="1">
          <mxGeometry x="156" y="894" width="60" height="30" as="geometry" />
        </mxCell>
        <mxCell id="NpQn2CzZ2_SNWyGe-Qzi-15" value="&lt;font style=&quot;font-size: 17px;&quot;&gt;1&lt;/font&gt;" style="text;html=1;align=center;verticalAlign=middle;whiteSpace=wrap;rounded=0;" vertex="1" parent="1">
          <mxGeometry x="157" y="723" width="60" height="30" as="geometry" />
        </mxCell>
        <mxCell id="NpQn2CzZ2_SNWyGe-Qzi-16" value="&lt;font style=&quot;font-size: 17px;&quot;&gt;1&lt;/font&gt;" style="text;html=1;align=center;verticalAlign=middle;whiteSpace=wrap;rounded=0;" vertex="1" parent="1">
          <mxGeometry x="157" y="593" width="60" height="30" as="geometry" />
        </mxCell>
        <mxCell id="NpQn2CzZ2_SNWyGe-Qzi-17" value="&lt;font style=&quot;font-size: 17px;&quot;&gt;1&lt;/font&gt;" style="text;html=1;align=center;verticalAlign=middle;whiteSpace=wrap;rounded=0;" vertex="1" parent="1">
          <mxGeometry x="157" y="537" width="60" height="30" as="geometry" />
        </mxCell>
      </root>
    </mxGraphModel>
  </diagram>
</mxfile>
